<svg width="12" height="19" viewBox="0 0 12 19" fill="none" xmlns="http://www.w3.org/2000/svg">
<path d="M3 1.5C3 2.32843 2.32843 3 1.5 3C0.671573 3 0 2.32843 0 1.5C0 0.671573 0.671573 0 1.5 0C2.32843 0 3 0.671573 3 1.5Z" fill="#838383"/>
<path d="M12 1.5C12 2.32843 11.3284 3 10.5 3C9.67157 3 9 2.32843 9 1.5C9 0.671573 9.67157 0 10.5 0C11.3284 0 12 0.671573 12 1.5Z" fill="#838383"/>
<path d="M3 9.5C3 10.3284 2.32843 11 1.5 11C0.671573 11 0 10.3284 0 9.5C0 8.67157 0.671573 8 1.5 8C2.32843 8 3 8.67157 3 9.5Z" fill="#838383"/>
<path d="M12 9.5C12 10.3284 11.3284 11 10.5 11C9.67157 11 9 10.3284 9 9.5C9 8.67157 9.67157 8 10.5 8C11.3284 8 12 8.67157 12 9.5Z" fill="#838383"/>
<path d="M3 17.5C3 18.3284 2.32843 19 1.5 19C0.671573 19 0 18.3284 0 17.5C0 16.6716 0.671573 16 1.5 16C2.32843 16 3 16.6716 3 17.5Z" fill="#838383"/>
<path d="M12 17.5C12 18.3284 11.3284 19 10.5 19C9.67157 19 9 18.3284 9 17.5C9 16.6716 9.67157 16 10.5 16C11.3284 16 12 16.6716 12 17.5Z" fill="#838383"/>
</svg>
