<svg width="21" height="21" viewBox="0 0 21 21" fill="none" xmlns="http://www.w3.org/2000/svg">
<path d="M5.29012 1.88911C6.02072 1.43318 6.81575 1.07127 7.65837 0.82012C8.08774 2.07545 9.0326 3.08097 10.2772 3.08097C11.5508 3.08097 12.5099 2.02959 12.9254 0.73039C13.7978 0.958037 14.6228 1.30337 15.3824 1.74855C14.7233 2.97815 14.6393 4.43434 15.5567 5.35173C16.4511 6.24616 17.8596 6.18786 19.0662 5.57513C19.426 6.24672 19.7095 6.96516 19.9052 7.71893C18.648 8.14739 17.6395 9.0932 17.6395 10.3394C17.6395 11.5592 18.6072 12.4918 19.8248 12.9319C19.596 13.7125 19.2723 14.4526 18.8668 15.139C17.6438 14.4932 16.2009 14.4164 15.2899 15.3274C14.4047 16.2126 14.4531 17.6022 15.0474 18.799C14.3515 19.1708 13.6055 19.4607 12.8221 19.6559C12.3532 18.563 11.4632 17.7172 10.3262 17.7172C9.20965 17.7172 8.33088 18.5336 7.85609 19.5965C7.10686 19.3904 6.3936 19.0972 5.72785 18.7285C6.19891 17.6042 6.18266 16.3445 5.36215 15.524C4.52087 14.6828 3.21957 14.6864 2.0718 15.1956C1.64328 14.4812 1.30363 13.7077 1.06799 12.8902C2.16442 12.4216 3.01286 11.5307 3.01286 10.3916C3.01286 9.21797 2.11385 8.30867 0.96637 7.85141C1.15745 7.07021 1.44255 6.32585 1.80908 5.63093C2.92926 6.09529 4.18124 6.07549 4.99799 5.25874C5.85848 4.39825 5.83561 3.05815 5.29012 1.88911ZM6.51361 10.18C6.51361 12.3554 8.2771 14.1188 10.4525 14.1188C12.6278 14.1188 14.3913 12.3554 14.3913 10.18C14.3913 8.00463 12.6278 6.24115 10.4525 6.24115C8.2771 6.24115 6.51361 8.00463 6.51361 10.18Z" stroke="#838383"/>
</svg>
