<svg width="37" height="37" viewBox="0 0 37 37" fill="none" xmlns="http://www.w3.org/2000/svg">
<path d="M5.96208 4.32031H4.0163L3.97584 12.5125L5.0163 8.22114V5.32031H5.71963L5.96208 4.32031Z" fill="#838383"/>
<path d="M34.1894 6.81937V5.32031H28.0065L23.8821 4.32031H35.1894V7.06183L34.1894 6.81937Z" fill="#838383"/>
<path d="M5.0163 29.2383V35.7833H34.1894V16.1645L35.1894 12.0401V36.7833H4.0163V28.9959L5.0163 29.2383Z" fill="#838383"/>
<path d="M21.534 9.30936C21.534 10.3245 20.7838 11.1474 19.8584 11.1474C18.933 11.1474 18.1828 10.3245 18.1828 9.30936C18.1828 8.29426 18.933 7.47136 19.8584 7.47136C20.7838 7.47136 21.534 8.29426 21.534 9.30936Z" fill="#838383"/>
<path d="M27.8887 5.80623L27.9468 5.82031L33.6894 7.21263L34.0716 7.3053L35.0716 7.54775L35.6894 7.69754L35.7256 7.70633L34.7034 11.9222L33.7034 16.0467L33.6894 16.1048L30.7393 28.2722C29.8934 31.761 26.3795 33.9035 22.8907 33.0576L5.5163 28.8451L5.13412 28.7524L4.13412 28.5099L3.5163 28.3601L0.807227 27.7033L4.46176 12.6303L5.50222 8.33896L5.5163 8.28089L6.11288 5.82031L6.20555 5.43813L6.448 4.43813L6.5978 3.82031L7.32512 0.820472L23.7643 4.80623L27.8887 5.80623ZM4.5163 5.32031V8.1614L4.49694 8.24125L4.51384 4.82031H4.5163V5.32031ZM21.034 9.30936C21.034 10.0929 20.4651 10.6474 19.8584 10.6474C19.2517 10.6474 18.6828 10.0929 18.6828 9.30936C18.6828 8.52586 19.2517 7.97136 19.8584 7.97136C20.4651 7.97136 21.034 8.52586 21.034 9.30936ZM19.8584 11.6474C21.1025 11.6474 22.034 10.5561 22.034 9.30936C22.034 8.06266 21.1025 6.97136 19.8584 6.97136C18.6143 6.97136 17.6828 8.06266 17.6828 9.30936C17.6828 10.5561 18.6143 11.6474 19.8584 11.6474Z" stroke="#838383"/>
</svg>
